<svg width="195" height="73" viewBox="0 0 195 73" fill="none" xmlns="http://www.w3.org/2000/svg">
<path d="M26.9966 31.7374C26.8086 32.0787 24.3637 36.3294 19.6724 44.5102C19.1605 45.3686 18.544 45.803 17.8231 45.803H11.0213C10.2168 45.803 9.75704 45.0273 10.1332 44.3137L17.3425 31.7685C17.3634 31.7685 17.3634 31.7581 17.3425 31.7374L12.7557 23.9186C12.3064 23.1119 12.787 22.4604 13.6438 22.4604H20.4456C21.2083 22.4604 21.8352 22.8844 22.3263 23.7221L26.9966 31.7374ZM49.9723 14.7864L34.9268 40.9524V40.9834L44.4974 58.2137C44.9049 58.948 44.5183 59.672 43.6093 59.672H36.7971C36.003 59.672 35.3761 59.2583 34.9164 58.4102L25.2622 40.9834C25.607 40.3836 30.6431 31.5926 40.3913 14.5899C40.8719 13.7522 41.4779 13.3281 42.2197 13.3281H49.0842C49.9201 13.3281 50.3693 14.0211 49.9723 14.7864Z" fill="#6172F3"/>
<path d="M67.4845 33.103C67.5757 32.566 67.5301 32.1151 67.3477 31.7503C67.1754 31.3754 66.912 31.0613 66.5574 30.808C66.2129 30.5446 65.8228 30.3217 65.3871 30.1393C64.9615 29.9569 64.536 29.7897 64.1104 29.6377C63.3302 29.3338 62.5602 28.9893 61.8003 28.6042C61.0505 28.2192 60.3665 27.7633 59.7485 27.2364C59.1304 26.6994 58.6491 26.0762 58.3046 25.367C57.9601 24.6476 57.8183 23.8066 57.879 22.844C57.95 21.7497 58.259 20.8024 58.8062 20.0019C59.3533 19.2014 60.0474 18.5479 60.8883 18.0413C61.7395 17.5245 62.6615 17.1446 63.6545 16.9014C64.6576 16.6582 65.6404 16.5468 66.603 16.567C67.981 16.5873 69.207 16.8761 70.281 17.4334C71.355 17.9805 72.196 18.7607 72.804 19.7739C73.422 20.777 73.7108 21.9828 73.6703 23.3912H69.2627C69.3032 22.7224 69.2171 22.1449 69.0043 21.6585C68.8017 21.1621 68.4724 20.7821 68.0164 20.5187C67.5706 20.2451 66.9981 20.0982 66.299 20.0779C65.7012 20.0678 65.1135 20.164 64.536 20.3667C63.9686 20.5592 63.4772 20.8631 63.0617 21.2786C62.6564 21.6839 62.4031 22.2107 62.3018 22.8592C62.2207 23.3354 62.2866 23.7458 62.4994 24.0903C62.7223 24.4348 63.0212 24.7286 63.3961 24.9718C63.7811 25.215 64.1864 25.4227 64.612 25.5949C65.0477 25.7571 65.4378 25.904 65.7823 26.0357C66.603 26.3295 67.3933 26.6791 68.1532 27.0844C68.9233 27.4897 69.6021 27.971 70.1898 28.5282C70.7775 29.0754 71.2284 29.7239 71.5425 30.4737C71.8566 31.2133 71.9832 32.0746 71.9224 33.0574C71.8312 34.1821 71.5273 35.1447 71.0105 35.9451C70.4938 36.7354 69.825 37.3839 69.0043 37.8905C68.1836 38.387 67.2869 38.7518 66.3142 38.9848C65.3415 39.2178 64.3536 39.3293 63.3505 39.3192C62.2562 39.2989 61.2278 39.1267 60.2652 38.8024C59.3026 38.4782 58.4617 38.0121 57.7423 37.4042C57.0229 36.7861 56.4656 36.0312 56.0704 35.1396C55.6854 34.2378 55.5081 33.2094 55.5385 32.0543L59.9916 32.0695C59.9511 32.6876 59.9967 33.2296 60.1284 33.6957C60.2703 34.1517 60.4932 34.5367 60.7972 34.8508C61.1113 35.1649 61.4963 35.403 61.9522 35.5651C62.4183 35.7171 62.9604 35.7982 63.5785 35.8083C64.1763 35.8083 64.7538 35.7171 65.3111 35.5347C65.8684 35.3524 66.3446 35.0636 66.7398 34.6684C67.1349 34.2631 67.3832 33.7413 67.4845 33.103ZM74.3694 31.036L74.415 30.7168C74.5366 29.5516 74.8152 28.4573 75.2509 27.434C75.6967 26.4005 76.2844 25.4936 77.0139 24.7134C77.7536 23.9231 78.6199 23.3101 79.6129 22.8744C80.616 22.4286 81.7407 22.2209 82.9869 22.2513C84.1724 22.2715 85.1958 22.5097 86.057 22.9656C86.9183 23.4216 87.6225 24.0346 88.1696 24.8046C88.7269 25.5747 89.117 26.4562 89.3399 27.4492C89.5729 28.4421 89.6388 29.4908 89.5375 30.5952L89.5071 30.9296C89.3754 32.0847 89.0815 33.1739 88.6256 34.1973C88.1797 35.2105 87.587 36.1072 86.8473 36.8874C86.1178 37.6575 85.2515 38.2603 84.2484 38.696C83.2453 39.1317 82.1308 39.3344 80.9047 39.304C79.7395 39.2837 78.7212 39.0507 77.8498 38.6048C76.9785 38.1489 76.2692 37.5409 75.7221 36.781C75.1749 36.011 74.7899 35.1345 74.567 34.1517C74.3441 33.1689 74.2782 32.1303 74.3694 31.036ZM78.6858 30.7168L78.6554 31.0512C78.6047 31.5375 78.5895 32.0594 78.6098 32.6166C78.63 33.1638 78.7162 33.6856 78.8681 34.1821C79.0303 34.6786 79.2937 35.0839 79.6585 35.398C80.0232 35.7121 80.5248 35.8792 81.1631 35.8995C81.842 35.9198 82.4246 35.783 82.9109 35.4892C83.3973 35.1953 83.7975 34.8002 84.1116 34.3037C84.4257 33.7971 84.674 33.2499 84.8563 32.6622C85.0387 32.0644 85.1603 31.4818 85.2211 30.9144L85.2515 30.5952C85.292 30.1089 85.3022 29.5871 85.2819 29.0298C85.2718 28.4624 85.1856 27.9304 85.0235 27.434C84.8614 26.9273 84.598 26.5119 84.2332 26.1877C83.8684 25.8634 83.3669 25.6912 82.7286 25.6709C82.0497 25.6405 81.4671 25.7824 80.9807 26.0965C80.4944 26.4005 80.0942 26.8058 79.7801 27.3124C79.466 27.819 79.2177 28.3712 79.0353 28.969C78.8631 29.5668 78.7466 30.1494 78.6858 30.7168ZM97.8814 35.8995C98.4185 35.9096 98.8947 35.8083 99.3101 35.5955C99.7357 35.3828 100.085 35.0839 100.359 34.6988C100.632 34.3138 100.815 33.868 100.906 33.3614L104.934 33.3462C104.842 34.5722 104.447 35.6361 103.748 36.5378C103.059 37.4396 102.183 38.1337 101.119 38.62C100.065 39.1064 98.9453 39.3344 97.7599 39.304C96.5744 39.2837 95.5561 39.0456 94.705 38.5896C93.864 38.1337 93.1851 37.5257 92.6684 36.7658C92.1516 35.9958 91.7869 35.1193 91.5741 34.1365C91.3714 33.1537 91.3208 32.1202 91.4221 31.036L91.4677 30.58C91.5893 29.4452 91.8628 28.3712 92.2884 27.358C92.714 26.3346 93.2814 25.4379 93.9906 24.6678C94.71 23.8876 95.5561 23.2848 96.5288 22.8592C97.5015 22.4235 98.6008 22.2209 99.8268 22.2513C101.093 22.2715 102.178 22.5603 103.079 23.1176C103.981 23.6647 104.665 24.4145 105.131 25.367C105.607 26.3194 105.835 27.4137 105.815 28.6498L101.803 28.6346C101.813 28.1382 101.747 27.667 101.605 27.2212C101.463 26.7652 101.22 26.4005 100.876 26.1269C100.541 25.8432 100.085 25.6861 99.5077 25.6557C98.8288 25.6355 98.2614 25.7773 97.8054 26.0813C97.3495 26.3751 96.9797 26.7754 96.696 27.282C96.4123 27.7785 96.1944 28.3205 96.0424 28.9082C95.8904 29.4858 95.7841 30.0481 95.7233 30.5952L95.6929 31.036C95.6422 31.492 95.6118 31.9986 95.6017 32.5558C95.5915 33.103 95.6473 33.6299 95.7689 34.1365C95.8904 34.633 96.1134 35.0484 96.4376 35.3828C96.772 35.707 97.2532 35.8792 97.8814 35.8995ZM113.779 22.5552L110.937 39H106.651L109.508 22.5552H113.779ZM109.979 18.3453C109.959 17.6563 110.182 17.1041 110.648 16.6886C111.124 16.2732 111.697 16.0604 112.366 16.0503C113.004 16.0402 113.561 16.2327 114.037 16.6278C114.514 17.0129 114.752 17.5347 114.752 18.1933C114.772 18.8823 114.544 19.4345 114.068 19.8499C113.592 20.2653 113.024 20.4781 112.366 20.4883C111.727 20.4984 111.17 20.3109 110.694 19.9259C110.228 19.5409 109.99 19.014 109.979 18.3453Z" fill="#6172F3"/>
<path d="M115.162 31.036L115.208 30.7168C115.329 29.5516 115.608 28.4573 116.044 27.434C116.489 26.4005 117.077 25.4936 117.807 24.7134C118.546 23.9231 119.413 23.3101 120.406 22.8744C121.409 22.4286 122.533 22.2209 123.78 22.2513C124.965 22.2715 125.988 22.5097 126.85 22.9656C127.711 23.4216 128.415 24.0346 128.962 24.8046C129.52 25.5747 129.91 26.4562 130.133 27.4492C130.366 28.4421 130.432 29.4908 130.33 30.5952L130.3 30.9296C130.168 32.0847 129.874 33.1739 129.418 34.1973C128.972 35.2105 128.38 36.1072 127.64 36.8874C126.911 37.6575 126.044 38.2603 125.041 38.696C124.038 39.1317 122.923 39.3344 121.697 39.304C120.532 39.2837 119.514 39.0507 118.643 38.6048C117.771 38.1489 117.062 37.5409 116.515 36.781C115.968 36.011 115.583 35.1345 115.36 34.1517C115.137 33.1689 115.071 32.1303 115.162 31.036ZM119.478 30.7168L119.448 31.0512C119.397 31.5375 119.382 32.0594 119.402 32.6166C119.423 33.1638 119.509 33.6856 119.661 34.1821C119.823 34.6786 120.086 35.0839 120.451 35.398C120.816 35.7121 121.317 35.8792 121.956 35.8995C122.635 35.9198 123.217 35.783 123.704 35.4892C124.19 35.1953 124.59 34.8002 124.904 34.3037C125.218 33.7971 125.467 33.2499 125.649 32.6622C125.831 32.0644 125.953 31.4818 126.014 30.9144L126.044 30.5952C126.085 30.1089 126.095 29.5871 126.075 29.0298C126.064 28.4624 125.978 27.9304 125.816 27.434C125.654 26.9273 125.391 26.5119 125.026 26.1877C124.661 25.8634 124.16 25.6912 123.521 25.6709C122.842 25.6405 122.26 25.7824 121.773 26.0965C121.287 26.4005 120.887 26.8058 120.573 27.3124C120.259 27.819 120.01 28.3712 119.828 28.969C119.656 29.5668 119.539 30.1494 119.478 30.7168ZM138.005 25.9597L134.647 45.3226H130.361L134.312 22.5552H138.264L138.005 25.9597ZM147.276 30.5041L147.231 30.8232C147.109 31.8162 146.876 32.8193 146.532 33.8325C146.197 34.8457 145.736 35.7729 145.149 36.6138C144.561 37.4447 143.837 38.1134 142.975 38.62C142.114 39.1165 141.101 39.3496 139.936 39.3192C138.912 39.2888 138.061 39.0203 137.382 38.5136C136.703 38.007 136.171 37.3586 135.786 36.5682C135.401 35.7678 135.133 34.9065 134.981 33.9845C134.829 33.0625 134.768 32.1809 134.799 31.34L134.905 30.4889C135.057 29.5668 135.32 28.6194 135.695 27.6467C136.07 26.6639 136.557 25.7621 137.154 24.9414C137.752 24.1106 138.466 23.4469 139.297 22.9504C140.128 22.4438 141.086 22.2057 142.17 22.2361C143.294 22.2665 144.211 22.535 144.921 23.0416C145.64 23.5482 146.187 24.2068 146.562 25.0174C146.937 25.828 147.17 26.7146 147.261 27.6771C147.363 28.6296 147.368 29.5719 147.276 30.5041ZM142.96 30.808L143.006 30.4889C143.046 30.043 143.067 29.5516 143.067 29.0146C143.067 28.4675 143.006 27.9456 142.884 27.4492C142.763 26.9527 142.54 26.5372 142.215 26.2029C141.891 25.8685 141.425 25.6912 140.817 25.6709C140.199 25.6405 139.657 25.7368 139.191 25.9597C138.725 26.1826 138.33 26.4967 138.005 26.902C137.691 27.2972 137.433 27.7481 137.23 28.2547C137.028 28.7613 136.881 29.2831 136.79 29.8201L136.486 31.9479C136.435 32.566 136.475 33.179 136.607 33.7869C136.739 34.3847 136.997 34.8812 137.382 35.2764C137.777 35.6715 138.345 35.8792 139.085 35.8995C139.753 35.9096 140.321 35.7577 140.787 35.4436C141.253 35.1295 141.633 34.714 141.927 34.1973C142.231 33.6704 142.464 33.1081 142.626 32.5102C142.788 31.9124 142.899 31.345 142.96 30.808ZM157.991 34.3645C158.072 33.8781 157.951 33.5032 157.627 33.2398C157.302 32.9662 156.902 32.7585 156.426 32.6166C155.96 32.4748 155.555 32.3633 155.21 32.2823C154.602 32.1202 153.989 31.9175 153.371 31.6743C152.763 31.421 152.211 31.1069 151.714 30.732C151.218 30.3571 150.823 29.9012 150.529 29.3642C150.235 28.817 150.103 28.1736 150.134 27.434C150.164 26.5524 150.387 25.7875 150.803 25.139C151.228 24.4804 151.775 23.9383 152.444 23.5128C153.113 23.0771 153.842 22.7528 154.633 22.54C155.423 22.3273 156.208 22.231 156.988 22.2513C158.083 22.2614 159.096 22.4641 160.028 22.8592C160.97 23.2544 161.73 23.8421 162.308 24.6222C162.895 25.4024 163.189 26.3751 163.189 27.5403L158.949 27.5251C158.959 27.0793 158.888 26.6892 158.736 26.3549C158.584 26.0205 158.351 25.7621 158.037 25.5797C157.723 25.3974 157.323 25.3062 156.836 25.3062C156.451 25.3062 156.066 25.3822 155.681 25.5341C155.306 25.676 154.982 25.8888 154.709 26.1725C154.435 26.4562 154.263 26.8058 154.192 27.2212C154.131 27.5657 154.182 27.8494 154.344 28.0723C154.506 28.2952 154.724 28.4776 154.997 28.6194C155.271 28.7512 155.56 28.8626 155.864 28.9538C156.168 29.0349 156.441 29.1007 156.684 29.1514C157.576 29.3844 158.447 29.6833 159.298 30.0481C160.15 30.4129 160.844 30.9245 161.381 31.5831C161.918 32.2316 162.166 33.0979 162.125 34.1821C162.095 35.1041 161.852 35.8944 161.396 36.553C160.94 37.2015 160.352 37.7335 159.633 38.1489C158.924 38.5542 158.154 38.848 157.323 39.0304C156.502 39.2229 155.696 39.3141 154.906 39.304C153.802 39.2837 152.763 39.0608 151.79 38.6352C150.828 38.2097 150.048 37.5916 149.45 36.781C148.852 35.9603 148.548 34.9572 148.538 33.7717L152.55 33.7869C152.561 34.3138 152.667 34.7596 152.87 35.1244C153.072 35.4892 153.361 35.7678 153.736 35.9603C154.121 36.1427 154.577 36.2339 155.104 36.2339C155.519 36.244 155.929 36.1883 156.335 36.0667C156.75 35.9451 157.11 35.7475 157.414 35.474C157.718 35.1902 157.91 34.8204 157.991 34.3645Z" fill="#2D31A6"/>
<path d="M59.4293 53.2599C59.4293 53.0992 59.4041 52.9573 59.3536 52.8344C59.3064 52.7083 59.2212 52.5948 59.0983 52.4939C58.9785 52.3931 58.8114 52.2969 58.5971 52.2055C58.3859 52.1141 58.1179 52.0211 57.7933 51.9265C57.4528 51.8257 57.1455 51.7138 56.8712 51.5908C56.597 51.4647 56.3621 51.3213 56.1667 51.1605C55.9712 50.9998 55.8215 50.8154 55.7175 50.6073C55.6135 50.3993 55.5614 50.1613 55.5614 49.8933C55.5614 49.6254 55.6166 49.3779 55.7269 49.151C55.8373 48.924 55.9949 48.727 56.1998 48.5599C56.4078 48.3897 56.6553 48.2573 56.9421 48.1627C57.229 48.0681 57.549 48.0209 57.902 48.0209C58.419 48.0209 58.8572 48.1202 59.2165 48.3187C59.579 48.5142 59.8548 48.7711 60.044 49.0895C60.2331 49.4047 60.3277 49.742 60.3277 50.1014H59.4198C59.4198 49.8429 59.3647 49.6143 59.2543 49.4157C59.144 49.214 58.9769 49.0564 58.7531 48.9429C58.5293 48.8263 58.2456 48.7679 57.902 48.7679C57.5773 48.7679 57.3094 48.8168 57.0982 48.9145C56.887 49.0122 56.7294 49.1446 56.6253 49.3117C56.5245 49.4788 56.474 49.6695 56.474 49.8839C56.474 50.0289 56.504 50.1613 56.5639 50.281C56.6269 50.3977 56.7231 50.5064 56.8523 50.6073C56.9847 50.7082 57.1518 50.8012 57.3535 50.8863C57.5584 50.9714 57.8027 51.0533 58.0864 51.1322C58.4773 51.2425 58.8146 51.3654 59.0983 51.501C59.382 51.6365 59.6153 51.7894 59.7981 51.9596C59.9841 52.1267 60.1212 52.3174 60.2095 52.5318C60.3009 52.743 60.3466 52.9825 60.3466 53.2505C60.3466 53.531 60.2899 53.7848 60.1764 54.0118C60.0629 54.2387 59.9006 54.4326 59.6894 54.5934C59.4782 54.7541 59.2244 54.8786 58.9281 54.9669C58.6349 55.052 58.3071 55.0946 57.9446 55.0946C57.6262 55.0946 57.3125 55.0504 57.0036 54.9622C56.6978 54.8739 56.4189 54.7415 56.1667 54.565C55.9177 54.3885 55.7175 54.171 55.5662 53.9125C55.418 53.6508 55.3439 53.3482 55.3439 53.0046H56.2518C56.2518 53.241 56.2975 53.4444 56.3889 53.6146C56.4803 53.7816 56.6048 53.9203 56.7625 54.0307C56.9232 54.141 57.1045 54.223 57.3062 54.2766C57.5111 54.327 57.7239 54.3522 57.9446 54.3522C58.2629 54.3522 58.5325 54.3081 58.7531 54.2198C58.9738 54.1315 59.1409 54.0055 59.2543 53.8415C59.371 53.6776 59.4293 53.4838 59.4293 53.2599ZM62.3559 50.8674V56.967H61.4764V49.8839H62.2803L62.3559 50.8674ZM65.8029 52.3994V52.4987C65.8029 52.8706 65.7588 53.2158 65.6705 53.5342C65.5823 53.8494 65.453 54.1237 65.2828 54.3569C65.1157 54.5902 64.9093 54.7715 64.6634 54.9007C64.4175 55.0299 64.1354 55.0946 63.817 55.0946C63.4923 55.0946 63.2054 55.041 62.9564 54.9338C62.7074 54.8266 62.4962 54.6706 62.3228 54.4657C62.1494 54.2608 62.0107 54.0149 61.9067 53.7281C61.8058 53.4412 61.7365 53.1181 61.6987 52.7587V52.2291C61.7365 51.8509 61.8074 51.512 61.9114 51.2125C62.0155 50.9131 62.1526 50.6577 62.3228 50.4465C62.4962 50.2322 62.7058 50.0698 62.9517 49.9595C63.1976 49.846 63.4813 49.7893 63.8028 49.7893C64.1243 49.7893 64.4096 49.8523 64.6586 49.9784C64.9077 50.1014 65.1173 50.2779 65.2875 50.508C65.4578 50.7381 65.5854 51.0139 65.6705 51.3355C65.7588 51.6539 65.8029 52.0085 65.8029 52.3994ZM64.9234 52.4987V52.3994C64.9234 52.144 64.8966 51.9045 64.8431 51.6807C64.7895 51.4537 64.7059 51.2551 64.5924 51.0849C64.4821 50.9115 64.3403 50.7759 64.1669 50.6782C63.9935 50.5774 63.787 50.5269 63.5475 50.5269C63.3268 50.5269 63.1345 50.5647 62.9706 50.6404C62.8098 50.7161 62.6727 50.8185 62.5592 50.9477C62.4457 51.0738 62.3528 51.2188 62.2803 51.3828C62.2109 51.5435 62.1589 51.7106 62.1242 51.884V53.1086C62.1873 53.3293 62.2755 53.5373 62.389 53.7328C62.5025 53.9251 62.6538 54.0811 62.8429 54.2009C63.0321 54.3175 63.2701 54.3758 63.5569 54.3758C63.7933 54.3758 63.9967 54.327 64.1669 54.2293C64.3403 54.1284 64.4821 53.9913 64.5924 53.8179C64.7059 53.6445 64.7895 53.4459 64.8431 53.2221C64.8966 52.9952 64.9234 52.754 64.9234 52.4987ZM67.8973 50.6877V55H67.0226V49.8839H67.8737L67.8973 50.6877ZM69.4955 49.8555L69.4908 50.6688C69.4183 50.653 69.349 50.6436 69.2828 50.6404C69.2197 50.6341 69.1472 50.6309 69.0653 50.6309C68.8635 50.6309 68.6854 50.6625 68.5309 50.7255C68.3765 50.7886 68.2457 50.8768 68.1385 50.9903C68.0313 51.1038 67.9462 51.2393 67.8832 51.3969C67.8233 51.5514 67.7839 51.7216 67.7649 51.9076L67.5191 52.0495C67.5191 51.7405 67.549 51.4505 67.6089 51.1794C67.672 50.9083 67.7681 50.6688 67.8973 50.4607C68.0266 50.2495 68.1905 50.0856 68.3891 49.969C68.5908 49.8492 68.8304 49.7893 69.1078 49.7893C69.1709 49.7893 69.2434 49.7972 69.3253 49.8129C69.4073 49.8255 69.464 49.8397 69.4955 49.8555ZM72.4364 55.0946C72.0801 55.0946 71.757 55.0347 71.467 54.9149C71.1802 54.7919 70.9327 54.6202 70.7247 54.3995C70.5198 54.1788 70.3622 53.9172 70.2518 53.6146C70.1415 53.312 70.0863 52.981 70.0863 52.6216V52.423C70.0863 52.0069 70.1478 51.6365 70.2707 51.3118C70.3937 50.984 70.5607 50.7066 70.7719 50.4796C70.9832 50.2527 71.2227 50.0809 71.4907 49.9642C71.7586 49.8476 72.036 49.7893 72.3229 49.7893C72.6885 49.7893 73.0038 49.8523 73.2686 49.9784C73.5365 50.1045 73.7556 50.281 73.9258 50.508C74.096 50.7318 74.2221 50.9966 74.3041 51.3024C74.386 51.605 74.427 51.936 74.427 52.2953V52.6878H70.6065V51.9738H73.5523V51.9076C73.5396 51.6807 73.4924 51.46 73.4104 51.2456C73.3316 51.0313 73.2055 50.8548 73.0321 50.7161C72.8588 50.5774 72.6223 50.508 72.3229 50.508C72.1243 50.508 71.9414 50.5506 71.7744 50.6357C71.6073 50.7176 71.4639 50.8406 71.3441 51.0045C71.2243 51.1684 71.1313 51.3686 71.0651 51.605C70.9989 51.8414 70.9658 52.1141 70.9658 52.423V52.6216C70.9658 52.8643 70.9989 53.0929 71.0651 53.3072C71.1345 53.5184 71.2338 53.7044 71.363 53.8652C71.4954 54.0259 71.6546 54.152 71.8406 54.2435C72.0297 54.3349 72.2441 54.3806 72.4836 54.3806C72.7926 54.3806 73.0542 54.3175 73.2686 54.1914C73.4829 54.0653 73.6705 53.8967 73.8312 53.6855L74.3608 54.1063C74.2505 54.2734 74.1102 54.4326 73.94 54.5839C73.7698 54.7352 73.5601 54.8581 73.3111 54.9527C73.0652 55.0473 72.7736 55.0946 72.4364 55.0946ZM78.5688 54.1252V51.4915C78.5688 51.2898 78.5279 51.1148 78.4459 50.9667C78.3671 50.8154 78.2473 50.6987 78.0865 50.6168C77.9258 50.5348 77.7272 50.4938 77.4908 50.4938C77.2701 50.4938 77.0762 50.5316 76.9092 50.6073C76.7452 50.683 76.616 50.7823 76.5214 50.9052C76.43 51.0281 76.3843 51.1605 76.3843 51.3024H75.5096C75.5096 51.1195 75.5568 50.9383 75.6514 50.7586C75.746 50.5789 75.8815 50.4166 76.058 50.2716C76.2377 50.1234 76.4521 50.0068 76.7011 49.9217C76.9533 49.8334 77.2338 49.7893 77.5428 49.7893C77.9147 49.7893 78.2426 49.8523 78.5263 49.9784C78.8131 50.1045 79.0369 50.2952 79.1977 50.5506C79.3616 50.8027 79.4436 51.1195 79.4436 51.501V53.8841C79.4436 54.0543 79.4578 54.2356 79.4861 54.4279C79.5177 54.6202 79.5634 54.7856 79.6233 54.9243V55H78.7107C78.6666 54.8991 78.6319 54.7652 78.6067 54.5981C78.5814 54.4279 78.5688 54.2702 78.5688 54.1252ZM78.7201 51.8982L78.7296 52.5129H77.8454C77.5964 52.5129 77.3741 52.5333 77.1787 52.5743C76.9832 52.6122 76.8193 52.6705 76.6869 52.7493C76.5545 52.8281 76.4537 52.9274 76.3843 53.0472C76.315 53.1638 76.2803 53.3009 76.2803 53.4585C76.2803 53.6193 76.3165 53.7659 76.389 53.8983C76.4615 54.0307 76.5703 54.1363 76.7153 54.2151C76.8635 54.2907 77.0447 54.3286 77.2591 54.3286C77.527 54.3286 77.7634 54.2718 77.9683 54.1583C78.1732 54.0449 78.3356 53.9062 78.4554 53.7422C78.5783 53.5783 78.6445 53.4191 78.6539 53.2647L79.0275 53.6855C79.0054 53.8179 78.9455 53.9645 78.8478 54.1252C78.7501 54.286 78.6193 54.4405 78.4554 54.5886C78.2946 54.7336 78.1023 54.855 77.8785 54.9527C77.6578 55.0473 77.4088 55.0946 77.1314 55.0946C76.7846 55.0946 76.4805 55.0268 76.2188 54.8912C75.9603 54.7557 75.7586 54.5744 75.6136 54.3475C75.4717 54.1174 75.4008 53.8605 75.4008 53.5767C75.4008 53.3025 75.4544 53.0613 75.5616 52.8533C75.6687 52.6421 75.8232 52.4671 76.0249 52.3284C76.2267 52.1866 76.4694 52.0794 76.7531 52.0069C77.0368 51.9344 77.3536 51.8982 77.7035 51.8982H78.7201ZM84.1481 54.007V47.7372H85.0276V55H84.2238L84.1481 54.007ZM80.7058 52.4987V52.3994C80.7058 52.0085 80.7531 51.6539 80.8477 51.3355C80.9454 51.0139 81.0825 50.7381 81.259 50.508C81.4387 50.2779 81.6515 50.1014 81.8974 49.9784C82.1464 49.8523 82.4238 49.7893 82.7296 49.7893C83.0511 49.7893 83.3317 49.846 83.5712 49.9595C83.814 50.0698 84.0189 50.2322 84.1859 50.4465C84.3561 50.6577 84.4901 50.9131 84.5878 51.2125C84.6856 51.512 84.7533 51.8509 84.7912 52.2291V52.6642C84.7565 53.0393 84.6887 53.3766 84.5878 53.676C84.4901 53.9755 84.3561 54.2308 84.1859 54.442C84.0189 54.6532 83.814 54.8156 83.5712 54.9291C83.3285 55.0394 83.0448 55.0946 82.7201 55.0946C82.4206 55.0946 82.1464 55.0299 81.8974 54.9007C81.6515 54.7715 81.4387 54.5902 81.259 54.3569C81.0825 54.1237 80.9454 53.8494 80.8477 53.5342C80.7531 53.2158 80.7058 52.8706 80.7058 52.4987ZM81.5853 52.3994V52.4987C81.5853 52.754 81.6105 52.9936 81.661 53.2174C81.7145 53.4412 81.7965 53.6382 81.9068 53.8084C82.0172 53.9787 82.1574 54.1126 82.3277 54.2104C82.4979 54.3049 82.7012 54.3522 82.9376 54.3522C83.2276 54.3522 83.4656 54.2907 83.6516 54.1678C83.8407 54.0449 83.9921 53.8825 84.1055 53.6808C84.219 53.479 84.3073 53.2599 84.3703 53.0235V51.884C84.3325 51.7106 84.2773 51.5435 84.2048 51.3828C84.1355 51.2188 84.0441 51.0738 83.9306 50.9477C83.8203 50.8185 83.6831 50.7161 83.5192 50.6404C83.3585 50.5647 83.1677 50.5269 82.9471 50.5269C82.7075 50.5269 82.501 50.5774 82.3277 50.6782C82.1574 50.7759 82.0172 50.9115 81.9068 51.0849C81.7965 51.2551 81.7145 51.4537 81.661 51.6807C81.6105 51.9045 81.5853 52.144 81.5853 52.3994ZM92.3135 49.8839H93.1079V54.8912C93.1079 55.342 93.0165 55.7266 92.8337 56.045C92.6508 56.3634 92.3955 56.6045 92.0677 56.7684C91.743 56.9355 91.3678 57.019 90.9423 57.019C90.7658 57.019 90.5577 56.9907 90.3181 56.9339C90.0817 56.8803 89.8484 56.7873 89.6183 56.6549C89.3914 56.5257 89.2007 56.3508 89.0462 56.1301L89.5048 55.61C89.7192 55.8685 89.943 56.0481 90.1763 56.149C90.4127 56.2499 90.646 56.3003 90.8761 56.3003C91.1535 56.3003 91.3931 56.2483 91.5948 56.1443C91.7966 56.0403 91.9526 55.8858 92.0629 55.6809C92.1764 55.4791 92.2331 55.2301 92.2331 54.9338V51.0092L92.3135 49.8839ZM88.7909 52.4987V52.3994C88.7909 52.0085 88.8366 51.6539 88.928 51.3355C89.0226 51.0139 89.1565 50.7381 89.3299 50.508C89.5064 50.2779 89.7192 50.1014 89.9682 49.9784C90.2173 49.8523 90.4978 49.7893 90.8099 49.7893C91.1314 49.7893 91.412 49.846 91.6516 49.9595C91.8943 50.0698 92.0992 50.2322 92.2662 50.4465C92.4365 50.6577 92.5704 50.9131 92.6682 51.2125C92.7659 51.512 92.8337 51.8509 92.8715 52.2291V52.6642C92.8368 53.0393 92.769 53.3766 92.6682 53.676C92.5704 53.9755 92.4365 54.2308 92.2662 54.442C92.0992 54.6532 91.8943 54.8156 91.6516 54.9291C91.4088 55.0394 91.1251 55.0946 90.8004 55.0946C90.4947 55.0946 90.2173 55.0299 89.9682 54.9007C89.7224 54.7715 89.5112 54.5902 89.3346 54.3569C89.1581 54.1237 89.0226 53.8494 88.928 53.5342C88.8366 53.2158 88.7909 52.8706 88.7909 52.4987ZM89.6656 52.3994V52.4987C89.6656 52.754 89.6908 52.9936 89.7413 53.2174C89.7949 53.4412 89.8752 53.6382 89.9824 53.8084C90.0927 53.9787 90.233 54.1126 90.4032 54.2104C90.5735 54.3049 90.7768 54.3522 91.0132 54.3522C91.3032 54.3522 91.5428 54.2907 91.7319 54.1678C91.9211 54.0449 92.0708 53.8825 92.1811 53.6808C92.2946 53.479 92.3829 53.2599 92.4459 53.0235V51.884C92.4112 51.7106 92.3577 51.5435 92.2852 51.3828C92.2158 51.2188 92.1244 51.0738 92.0109 50.9477C91.9006 50.8185 91.7635 50.7161 91.5995 50.6404C91.4356 50.5647 91.2433 50.5269 91.0227 50.5269C90.7831 50.5269 90.5766 50.5774 90.4032 50.6782C90.233 50.7759 90.0927 50.9115 89.9824 51.0849C89.8752 51.2551 89.7949 51.4537 89.7413 51.6807C89.6908 51.9045 89.6656 52.144 89.6656 52.3994ZM94.3086 52.4987V52.3899C94.3086 52.0211 94.3622 51.6791 94.4694 51.3638C94.5766 51.0455 94.7311 50.7696 94.9328 50.5364C95.1345 50.3 95.3788 50.1171 95.6657 49.9879C95.9526 49.8555 96.2741 49.7893 96.6303 49.7893C96.9897 49.7893 97.3128 49.8555 97.5996 49.9879C97.8896 50.1171 98.1355 50.3 98.3373 50.5364C98.5422 50.7696 98.6982 51.0455 98.8054 51.3638C98.9125 51.6791 98.9661 52.0211 98.9661 52.3899V52.4987C98.9661 52.8675 98.9125 53.2095 98.8054 53.5247C98.6982 53.84 98.5422 54.1158 98.3373 54.3522C98.1355 54.5855 97.8912 54.7683 97.6044 54.9007C97.3206 55.0299 96.9991 55.0946 96.6398 55.0946C96.2804 55.0946 95.9573 55.0299 95.6704 54.9007C95.3836 54.7683 95.1377 54.5855 94.9328 54.3522C94.7311 54.1158 94.5766 53.84 94.4694 53.5247C94.3622 53.2095 94.3086 52.8675 94.3086 52.4987ZM95.1834 52.3899V52.4987C95.1834 52.754 95.2134 52.9952 95.2732 53.2221C95.3331 53.4459 95.423 53.6445 95.5428 53.8179C95.6657 53.9913 95.8186 54.1284 96.0014 54.2293C96.1843 54.327 96.397 54.3758 96.6398 54.3758C96.8793 54.3758 97.089 54.327 97.2686 54.2293C97.4515 54.1284 97.6028 53.9913 97.7226 53.8179C97.8424 53.6445 97.9322 53.4459 97.9921 53.2221C98.0551 52.9952 98.0867 52.754 98.0867 52.4987V52.3899C98.0867 52.1377 98.0551 51.8997 97.9921 51.6759C97.9322 51.449 97.8408 51.2488 97.7178 51.0754C97.598 50.8989 97.4467 50.7602 97.2639 50.6593C97.0842 50.5584 96.873 50.508 96.6303 50.508C96.3907 50.508 96.1795 50.5584 95.9967 50.6593C95.817 50.7602 95.6657 50.8989 95.5428 51.0754C95.423 51.2488 95.3331 51.449 95.2732 51.6759C95.2134 51.8997 95.1834 52.1377 95.1834 52.3899ZM103.392 54.007V47.7372H104.271V55H103.467L103.392 54.007ZM99.9494 52.4987V52.3994C99.9494 52.0085 99.9967 51.6539 100.091 51.3355C100.189 51.0139 100.326 50.7381 100.503 50.508C100.682 50.2779 100.895 50.1014 101.141 49.9784C101.39 49.8523 101.667 49.7893 101.973 49.7893C102.295 49.7893 102.575 49.846 102.815 49.9595C103.058 50.0698 103.262 50.2322 103.429 50.4465C103.6 50.6577 103.734 50.9131 103.831 51.2125C103.929 51.512 103.997 51.8509 104.035 52.2291V52.6642C104 53.0393 103.932 53.3766 103.831 53.676C103.734 53.9755 103.6 54.2308 103.429 54.442C103.262 54.6532 103.058 54.8156 102.815 54.9291C102.572 55.0394 102.288 55.0946 101.964 55.0946C101.664 55.0946 101.39 55.0299 101.141 54.9007C100.895 54.7715 100.682 54.5902 100.503 54.3569C100.326 54.1237 100.189 53.8494 100.091 53.5342C99.9967 53.2158 99.9494 52.8706 99.9494 52.4987ZM100.829 52.3994V52.4987C100.829 52.754 100.854 52.9936 100.905 53.2174C100.958 53.4412 101.04 53.6382 101.15 53.8084C101.261 53.9787 101.401 54.1126 101.571 54.2104C101.741 54.3049 101.945 54.3522 102.181 54.3522C102.471 54.3522 102.709 54.2907 102.895 54.1678C103.084 54.0449 103.236 53.8825 103.349 53.6808C103.463 53.479 103.551 53.2599 103.614 53.0235V51.884C103.576 51.7106 103.521 51.5435 103.448 51.3828C103.379 51.2188 103.288 51.0738 103.174 50.9477C103.064 50.8185 102.927 50.7161 102.763 50.6404C102.602 50.5647 102.411 50.5269 102.191 50.5269C101.951 50.5269 101.745 50.5774 101.571 50.6782C101.401 50.7759 101.261 50.9115 101.15 51.0849C101.04 51.2551 100.958 51.4537 100.905 51.6807C100.854 51.9045 100.829 52.144 100.829 52.3994ZM106.611 50.9761V55H105.737V49.8839H106.564L106.611 50.9761ZM106.403 52.2481L106.039 52.2339C106.042 51.884 106.094 51.5609 106.195 51.2646C106.296 50.9651 106.438 50.705 106.621 50.4844C106.804 50.2637 107.021 50.0935 107.273 49.9737C107.529 49.8508 107.811 49.7893 108.12 49.7893C108.372 49.7893 108.599 49.824 108.801 49.8933C109.002 49.9595 109.174 50.0667 109.316 50.2148C109.461 50.363 109.571 50.5553 109.647 50.7917C109.723 51.025 109.761 51.3103 109.761 51.6476V55H108.881V51.6381C108.881 51.3702 108.842 51.1558 108.763 50.995C108.684 50.8311 108.569 50.7129 108.418 50.6404C108.266 50.5647 108.08 50.5269 107.86 50.5269C107.642 50.5269 107.444 50.5726 107.264 50.664C107.087 50.7555 106.935 50.8816 106.805 51.0423C106.679 51.2031 106.58 51.3875 106.507 51.5955C106.438 51.8004 106.403 52.0179 106.403 52.2481ZM113.316 55.0946C112.96 55.0946 112.637 55.0347 112.347 54.9149C112.06 54.7919 111.812 54.6202 111.604 54.3995C111.399 54.1788 111.242 53.9172 111.132 53.6146C111.021 53.312 110.966 52.981 110.966 52.6216V52.423C110.966 52.0069 111.028 51.6365 111.15 51.3118C111.273 50.984 111.44 50.7066 111.652 50.4796C111.863 50.2527 112.102 50.0809 112.37 49.9642C112.638 49.8476 112.916 49.7893 113.203 49.7893C113.568 49.7893 113.883 49.8523 114.148 49.9784C114.416 50.1045 114.635 50.281 114.806 50.508C114.976 50.7318 115.102 50.9966 115.184 51.3024C115.266 51.605 115.307 51.936 115.307 52.2953V52.6878H111.486V51.9738H114.432V51.9076C114.419 51.6807 114.372 51.46 114.29 51.2456C114.211 51.0313 114.085 50.8548 113.912 50.7161C113.738 50.5774 113.502 50.508 113.203 50.508C113.004 50.508 112.821 50.5506 112.654 50.6357C112.487 50.7176 112.344 50.8406 112.224 51.0045C112.104 51.1684 112.011 51.3686 111.945 51.605C111.879 51.8414 111.846 52.1141 111.846 52.423V52.6216C111.846 52.8643 111.879 53.0929 111.945 53.3072C112.014 53.5184 112.113 53.7044 112.243 53.8652C112.375 54.0259 112.534 54.152 112.72 54.2435C112.909 54.3349 113.124 54.3806 113.363 54.3806C113.672 54.3806 113.934 54.3175 114.148 54.1914C114.363 54.0653 114.55 53.8967 114.711 53.6855L115.241 54.1063C115.13 54.2734 114.99 54.4326 114.82 54.5839C114.649 54.7352 114.44 54.8581 114.191 54.9527C113.945 55.0473 113.653 55.0946 113.316 55.0946ZM119.411 53.6429C119.411 53.5169 119.382 53.4002 119.326 53.293C119.272 53.1827 119.16 53.0834 118.99 52.9952C118.823 52.9037 118.571 52.8249 118.233 52.7587C117.95 52.6988 117.693 52.6279 117.463 52.546C117.236 52.464 117.042 52.3647 116.881 52.2481C116.723 52.1314 116.602 51.9943 116.517 51.8367C116.432 51.6791 116.389 51.4947 116.389 51.2835C116.389 51.0817 116.433 50.891 116.522 50.7113C116.613 50.5316 116.741 50.3725 116.905 50.2338C117.072 50.0951 117.272 49.9863 117.505 49.9075C117.738 49.8287 117.999 49.7893 118.285 49.7893C118.695 49.7893 119.045 49.8618 119.335 50.0068C119.625 50.1518 119.847 50.3457 120.002 50.5884C120.156 50.828 120.233 51.0943 120.233 51.3875H119.359C119.359 51.2456 119.316 51.1085 119.231 50.9761C119.149 50.8406 119.028 50.7287 118.867 50.6404C118.709 50.5521 118.515 50.508 118.285 50.508C118.043 50.508 117.846 50.5458 117.694 50.6215C117.546 50.694 117.437 50.787 117.368 50.9005C117.302 51.0139 117.269 51.1337 117.269 51.2598C117.269 51.3544 117.285 51.4395 117.316 51.5152C117.351 51.5877 117.411 51.6554 117.496 51.7185C117.581 51.7784 117.701 51.8351 117.855 51.8887C118.01 51.9423 118.207 51.9959 118.446 52.0495C118.865 52.144 119.211 52.2575 119.482 52.3899C119.753 52.5223 119.954 52.6847 120.087 52.8769C120.219 53.0692 120.285 53.3025 120.285 53.5767C120.285 53.8006 120.238 54.0055 120.144 54.1914C120.052 54.3774 119.918 54.5382 119.742 54.6737C119.568 54.8061 119.36 54.9102 119.118 54.9858C118.878 55.0583 118.608 55.0946 118.309 55.0946C117.858 55.0946 117.477 55.0142 117.165 54.8534C116.853 54.6927 116.616 54.4846 116.455 54.2293C116.295 53.9739 116.214 53.7044 116.214 53.4207H117.094C117.106 53.6603 117.176 53.851 117.302 53.9928C117.428 54.1315 117.582 54.2308 117.765 54.2907C117.948 54.3475 118.129 54.3758 118.309 54.3758C118.549 54.3758 118.749 54.3443 118.91 54.2813C119.073 54.2182 119.198 54.1315 119.283 54.0212C119.368 53.9109 119.411 53.7848 119.411 53.6429ZM124.517 53.6429C124.517 53.5169 124.489 53.4002 124.432 53.293C124.378 53.1827 124.267 53.0834 124.096 52.9952C123.929 52.9037 123.677 52.8249 123.34 52.7587C123.056 52.6988 122.799 52.6279 122.569 52.546C122.342 52.464 122.148 52.3647 121.987 52.2481C121.83 52.1314 121.708 51.9943 121.623 51.8367C121.538 51.6791 121.496 51.4947 121.496 51.2835C121.496 51.0817 121.54 50.891 121.628 50.7113C121.719 50.5316 121.847 50.3725 122.011 50.2338C122.178 50.0951 122.378 49.9863 122.612 49.9075C122.845 49.8287 123.105 49.7893 123.392 49.7893C123.802 49.7893 124.151 49.8618 124.441 50.0068C124.731 50.1518 124.954 50.3457 125.108 50.5884C125.263 50.828 125.34 51.0943 125.34 51.3875H124.465C124.465 51.2456 124.423 51.1085 124.337 50.9761C124.256 50.8406 124.134 50.7287 123.973 50.6404C123.816 50.5521 123.622 50.508 123.392 50.508C123.149 50.508 122.952 50.5458 122.801 50.6215C122.653 50.694 122.544 50.787 122.474 50.9005C122.408 51.0139 122.375 51.1337 122.375 51.2598C122.375 51.3544 122.391 51.4395 122.422 51.5152C122.457 51.5877 122.517 51.6554 122.602 51.7185C122.687 51.7784 122.807 51.8351 122.961 51.8887C123.116 51.9423 123.313 51.9959 123.553 52.0495C123.972 52.144 124.317 52.2575 124.588 52.3899C124.859 52.5223 125.061 52.6847 125.193 52.8769C125.326 53.0692 125.392 53.3025 125.392 53.5767C125.392 53.8006 125.345 54.0055 125.25 54.1914C125.159 54.3774 125.025 54.5382 124.848 54.6737C124.675 54.8061 124.467 54.9102 124.224 54.9858C123.984 55.0583 123.715 55.0946 123.415 55.0946C122.965 55.0946 122.583 55.0142 122.271 54.8534C121.959 54.6927 121.723 54.4846 121.562 54.2293C121.401 53.9739 121.321 53.7044 121.321 53.4207H122.2C122.213 53.6603 122.282 53.851 122.408 53.9928C122.534 54.1315 122.689 54.2308 122.872 54.2907C123.054 54.3475 123.236 54.3758 123.415 54.3758C123.655 54.3758 123.855 54.3443 124.016 54.2813C124.18 54.2182 124.304 54.1315 124.389 54.0212C124.475 53.9109 124.517 53.7848 124.517 53.6429ZM130.446 54.0921L131.761 49.8839H132.337L132.224 50.7208L130.886 55H130.323L130.446 54.0921ZM129.562 49.8839L130.682 54.1394L130.763 55H130.172L128.687 49.8839H129.562ZM133.595 54.1063L134.664 49.8839H135.534L134.049 55H133.463L133.595 54.1063ZM132.465 49.8839L133.751 54.0212L133.898 55H133.34L131.964 50.7113L131.85 49.8839H132.465ZM137.486 49.8839V55H136.607V49.8839H137.486ZM136.541 48.5268C136.541 48.3849 136.583 48.2652 136.668 48.1674C136.757 48.0697 136.886 48.0209 137.056 48.0209C137.223 48.0209 137.351 48.0697 137.439 48.1674C137.531 48.2652 137.576 48.3849 137.576 48.5268C137.576 48.6623 137.531 48.779 137.439 48.8767C137.351 48.9713 137.223 49.0186 137.056 49.0186C136.886 49.0186 136.757 48.9713 136.668 48.8767C136.583 48.779 136.541 48.6623 136.541 48.5268ZM141.136 49.8839V50.5553H138.37V49.8839H141.136ZM139.307 48.6403H140.181V53.7328C140.181 53.9062 140.208 54.037 140.262 54.1252C140.315 54.2135 140.385 54.2718 140.47 54.3002C140.555 54.3286 140.646 54.3428 140.744 54.3428C140.816 54.3428 140.892 54.3364 140.971 54.3238C141.053 54.3081 141.114 54.2955 141.155 54.286L141.16 55C141.091 55.0221 140.999 55.0426 140.886 55.0615C140.776 55.0835 140.642 55.0946 140.484 55.0946C140.27 55.0946 140.073 55.052 139.893 54.9669C139.713 54.8818 139.57 54.7399 139.463 54.5413C139.359 54.3396 139.307 54.0685 139.307 53.7281V48.6403ZM143.141 47.7372V55H142.266V47.7372H143.141ZM142.933 52.2481L142.569 52.2339C142.572 51.884 142.624 51.5609 142.725 51.2646C142.826 50.9651 142.968 50.705 143.15 50.4844C143.333 50.2637 143.551 50.0935 143.803 49.9737C144.058 49.8508 144.34 49.7893 144.649 49.7893C144.902 49.7893 145.129 49.824 145.33 49.8933C145.532 49.9595 145.704 50.0667 145.846 50.2148C145.991 50.363 146.101 50.5553 146.177 50.7917C146.252 51.025 146.29 51.3103 146.29 51.6476V55H145.411V51.6381C145.411 51.3702 145.371 51.1558 145.292 50.995C145.214 50.8311 145.099 50.7129 144.947 50.6404C144.796 50.5647 144.61 50.5269 144.389 50.5269C144.172 50.5269 143.973 50.5726 143.794 50.664C143.617 50.7555 143.464 50.8816 143.335 51.0423C143.209 51.2031 143.11 51.3875 143.037 51.5955C142.968 51.8004 142.933 52.0179 142.933 52.2481ZM154.011 53.2599C154.011 53.0992 153.986 52.9573 153.935 52.8344C153.888 52.7083 153.803 52.5948 153.68 52.4939C153.56 52.3931 153.393 52.2969 153.179 52.2055C152.968 52.1141 152.7 52.0211 152.375 51.9265C152.035 51.8257 151.727 51.7138 151.453 51.5908C151.179 51.4647 150.944 51.3213 150.749 51.1605C150.553 50.9998 150.403 50.8154 150.299 50.6073C150.195 50.3993 150.143 50.1613 150.143 49.8933C150.143 49.6254 150.198 49.3779 150.309 49.151C150.419 48.924 150.577 48.727 150.782 48.5599C150.99 48.3897 151.237 48.2573 151.524 48.1627C151.811 48.0681 152.131 48.0209 152.484 48.0209C153.001 48.0209 153.439 48.1202 153.798 48.3187C154.161 48.5142 154.437 48.7711 154.626 49.0895C154.815 49.4047 154.91 49.742 154.91 50.1014H154.002C154.002 49.8429 153.946 49.6143 153.836 49.4157C153.726 49.214 153.559 49.0564 153.335 48.9429C153.111 48.8263 152.827 48.7679 152.484 48.7679C152.159 48.7679 151.891 48.8168 151.68 48.9145C151.469 49.0122 151.311 49.1446 151.207 49.3117C151.106 49.4788 151.056 49.6695 151.056 49.8839C151.056 50.0289 151.086 50.1613 151.146 50.281C151.209 50.3977 151.305 50.5064 151.434 50.6073C151.567 50.7082 151.734 50.8012 151.935 50.8863C152.14 50.9714 152.385 51.0533 152.668 51.1322C153.059 51.2425 153.396 51.3654 153.68 51.501C153.964 51.6365 154.197 51.7894 154.38 51.9596C154.566 52.1267 154.703 52.3174 154.791 52.5318C154.883 52.743 154.928 52.9825 154.928 53.2505C154.928 53.531 154.872 53.7848 154.758 54.0118C154.645 54.2387 154.482 54.4326 154.271 54.5934C154.06 54.7541 153.806 54.8786 153.51 54.9669C153.217 55.052 152.889 55.0946 152.526 55.0946C152.208 55.0946 151.894 55.0504 151.585 54.9622C151.28 54.8739 151.001 54.7415 150.749 54.565C150.499 54.3885 150.299 54.171 150.148 53.9125C150 53.6508 149.926 53.3482 149.926 53.0046H150.834C150.834 53.241 150.879 53.4444 150.971 53.6146C151.062 53.7816 151.187 53.9203 151.344 54.0307C151.505 54.141 151.686 54.223 151.888 54.2766C152.093 54.327 152.306 54.3522 152.526 54.3522C152.845 54.3522 153.114 54.3081 153.335 54.2198C153.556 54.1315 153.723 54.0055 153.836 53.8415C153.953 53.6776 154.011 53.4838 154.011 53.2599ZM155.831 52.4987V52.3899C155.831 52.0211 155.885 51.6791 155.992 51.3638C156.099 51.0455 156.254 50.7696 156.455 50.5364C156.657 50.3 156.901 50.1171 157.188 49.9879C157.475 49.8555 157.797 49.7893 158.153 49.7893C158.512 49.7893 158.835 49.8555 159.122 49.9879C159.412 50.1171 159.658 50.3 159.86 50.5364C160.065 50.7696 160.221 51.0455 160.328 51.3638C160.435 51.6791 160.489 52.0211 160.489 52.3899V52.4987C160.489 52.8675 160.435 53.2095 160.328 53.5247C160.221 53.84 160.065 54.1158 159.86 54.3522C159.658 54.5855 159.414 54.7683 159.127 54.9007C158.843 55.0299 158.522 55.0946 158.162 55.0946C157.803 55.0946 157.48 55.0299 157.193 54.9007C156.906 54.7683 156.66 54.5855 156.455 54.3522C156.254 54.1158 156.099 53.84 155.992 53.5247C155.885 53.2095 155.831 52.8675 155.831 52.4987ZM156.706 52.3899V52.4987C156.706 52.754 156.736 52.9952 156.796 53.2221C156.856 53.4459 156.946 53.6445 157.065 53.8179C157.188 53.9913 157.341 54.1284 157.524 54.2293C157.707 54.327 157.92 54.3758 158.162 54.3758C158.402 54.3758 158.612 54.327 158.791 54.2293C158.974 54.1284 159.125 53.9913 159.245 53.8179C159.365 53.6445 159.455 53.4459 159.515 53.2221C159.578 52.9952 159.609 52.754 159.609 52.4987V52.3899C159.609 52.1377 159.578 51.8997 159.515 51.6759C159.455 51.449 159.363 51.2488 159.24 51.0754C159.121 50.8989 158.969 50.7602 158.787 50.6593C158.607 50.5584 158.396 50.508 158.153 50.508C157.913 50.508 157.702 50.5584 157.519 50.6593C157.34 50.7602 157.188 50.8989 157.065 51.0754C156.946 51.2488 156.856 51.449 156.796 51.6759C156.736 51.8997 156.706 52.1377 156.706 52.3899ZM163.737 54.3758C163.945 54.3758 164.137 54.3333 164.314 54.2482C164.49 54.1631 164.635 54.0464 164.749 53.8983C164.862 53.747 164.927 53.5752 164.943 53.3829H165.775C165.759 53.6855 165.657 53.9676 165.468 54.2293C165.282 54.4878 165.037 54.6974 164.735 54.8581C164.432 55.0158 164.099 55.0946 163.737 55.0946C163.352 55.0946 163.017 55.0268 162.73 54.8912C162.446 54.7557 162.21 54.5697 162.021 54.3333C161.835 54.0969 161.694 53.8258 161.6 53.52C161.508 53.2111 161.463 52.8848 161.463 52.5412V52.3426C161.463 51.999 161.508 51.6743 161.6 51.3686C161.694 51.0597 161.835 50.787 162.021 50.5506C162.21 50.3141 162.446 50.1282 162.73 49.9926C163.017 49.8571 163.352 49.7893 163.737 49.7893C164.137 49.7893 164.487 49.8712 164.787 50.0352C165.086 50.1959 165.321 50.4166 165.491 50.6971C165.665 50.9745 165.759 51.2898 165.775 51.6428H164.943C164.927 51.4316 164.867 51.2409 164.763 51.0707C164.662 50.9005 164.523 50.7649 164.347 50.664C164.174 50.56 163.97 50.508 163.737 50.508C163.469 50.508 163.244 50.5616 163.061 50.6688C162.881 50.7728 162.738 50.9146 162.63 51.0943C162.526 51.2709 162.451 51.4679 162.404 51.6854C162.359 51.8997 162.337 52.1188 162.337 52.3426V52.5412C162.337 52.765 162.359 52.9857 162.404 53.2032C162.448 53.4207 162.522 53.6177 162.626 53.7943C162.733 53.9708 162.876 54.1126 163.056 54.2198C163.239 54.3238 163.466 54.3758 163.737 54.3758ZM167.813 49.8839V55H166.933V49.8839H167.813ZM166.867 48.5268C166.867 48.3849 166.909 48.2652 166.995 48.1674C167.083 48.0697 167.212 48.0209 167.382 48.0209C167.549 48.0209 167.677 48.0697 167.765 48.1674C167.857 48.2652 167.902 48.3849 167.902 48.5268C167.902 48.6623 167.857 48.779 167.765 48.8767C167.677 48.9713 167.549 49.0186 167.382 49.0186C167.212 49.0186 167.083 48.9713 166.995 48.8767C166.909 48.779 166.867 48.6623 166.867 48.5268ZM169.089 52.4987V52.3899C169.089 52.0211 169.143 51.6791 169.25 51.3638C169.357 51.0455 169.511 50.7696 169.713 50.5364C169.915 50.3 170.159 50.1171 170.446 49.9879C170.733 49.8555 171.054 49.7893 171.411 49.7893C171.77 49.7893 172.093 49.8555 172.38 49.9879C172.67 50.1171 172.916 50.3 173.118 50.5364C173.322 50.7696 173.478 51.0455 173.586 51.3638C173.693 51.6791 173.746 52.0211 173.746 52.3899V52.4987C173.746 52.8675 173.693 53.2095 173.586 53.5247C173.478 53.84 173.322 54.1158 173.118 54.3522C172.916 54.5855 172.672 54.7683 172.385 54.9007C172.101 55.0299 171.779 55.0946 171.42 55.0946C171.061 55.0946 170.738 55.0299 170.451 54.9007C170.164 54.7683 169.918 54.5855 169.713 54.3522C169.511 54.1158 169.357 53.84 169.25 53.5247C169.143 53.2095 169.089 52.8675 169.089 52.4987ZM169.964 52.3899V52.4987C169.964 52.754 169.994 52.9952 170.054 53.2221C170.113 53.4459 170.203 53.6445 170.323 53.8179C170.446 53.9913 170.599 54.1284 170.782 54.2293C170.965 54.327 171.177 54.3758 171.42 54.3758C171.66 54.3758 171.869 54.327 172.049 54.2293C172.232 54.1284 172.383 53.9913 172.503 53.8179C172.623 53.6445 172.712 53.4459 172.772 53.2221C172.835 52.9952 172.867 52.754 172.867 52.4987V52.3899C172.867 52.1377 172.835 51.8997 172.772 51.6759C172.712 51.449 172.621 51.2488 172.498 51.0754C172.378 50.8989 172.227 50.7602 172.044 50.6593C171.865 50.5584 171.653 50.508 171.411 50.508C171.171 50.508 170.96 50.5584 170.777 50.6593C170.597 50.7602 170.446 50.8989 170.323 51.0754C170.203 51.2488 170.113 51.449 170.054 51.6759C169.994 51.8997 169.964 52.1377 169.964 52.3899ZM175.822 50.8674V56.967H174.942V49.8839H175.746L175.822 50.8674ZM179.269 52.3994V52.4987C179.269 52.8706 179.225 53.2158 179.137 53.5342C179.048 53.8494 178.919 54.1237 178.749 54.3569C178.582 54.5902 178.375 54.7715 178.129 54.9007C177.884 55.0299 177.601 55.0946 177.283 55.0946C176.958 55.0946 176.671 55.041 176.422 54.9338C176.173 54.8266 175.962 54.6706 175.789 54.4657C175.615 54.2608 175.477 54.0149 175.373 53.7281C175.272 53.4412 175.203 53.1181 175.165 52.7587V52.2291C175.203 51.8509 175.273 51.512 175.377 51.2125C175.481 50.9131 175.619 50.6577 175.789 50.4465C175.962 50.2322 176.172 50.0698 176.418 49.9595C176.664 49.846 176.947 49.7893 177.269 49.7893C177.59 49.7893 177.876 49.8523 178.125 49.9784C178.374 50.1014 178.583 50.2779 178.754 50.508C178.924 50.7381 179.051 51.0139 179.137 51.3355C179.225 51.6539 179.269 52.0085 179.269 52.3994ZM178.389 52.4987V52.3994C178.389 52.144 178.363 51.9045 178.309 51.6807C178.256 51.4537 178.172 51.2551 178.058 51.0849C177.948 50.9115 177.806 50.7759 177.633 50.6782C177.46 50.5774 177.253 50.5269 177.014 50.5269C176.793 50.5269 176.601 50.5647 176.437 50.6404C176.276 50.7161 176.139 50.8185 176.025 50.9477C175.912 51.0738 175.819 51.2188 175.746 51.3828C175.677 51.5435 175.625 51.7106 175.59 51.884V53.1086C175.653 53.3293 175.742 53.5373 175.855 53.7328C175.969 53.9251 176.12 54.0811 176.309 54.2009C176.498 54.3175 176.736 54.3758 177.023 54.3758C177.259 54.3758 177.463 54.327 177.633 54.2293C177.806 54.1284 177.948 53.9913 178.058 53.8179C178.172 53.6445 178.256 53.4459 178.309 53.2221C178.363 52.9952 178.389 52.754 178.389 52.4987ZM183.468 53.6429C183.468 53.5169 183.439 53.4002 183.382 53.293C183.329 53.1827 183.217 53.0834 183.047 52.9952C182.88 52.9037 182.627 52.8249 182.29 52.7587C182.006 52.6988 181.75 52.6279 181.519 52.546C181.292 52.464 181.099 52.3647 180.938 52.2481C180.78 52.1314 180.659 51.9943 180.574 51.8367C180.489 51.6791 180.446 51.4947 180.446 51.2835C180.446 51.0817 180.49 50.891 180.578 50.7113C180.67 50.5316 180.798 50.3725 180.961 50.2338C181.129 50.0951 181.329 49.9863 181.562 49.9075C181.795 49.8287 182.055 49.7893 182.342 49.7893C182.752 49.7893 183.102 49.8618 183.392 50.0068C183.682 50.1518 183.904 50.3457 184.059 50.5884C184.213 50.828 184.29 51.0943 184.29 51.3875H183.416C183.416 51.2456 183.373 51.1085 183.288 50.9761C183.206 50.8406 183.085 50.7287 182.924 50.6404C182.766 50.5521 182.572 50.508 182.342 50.508C182.099 50.508 181.902 50.5458 181.751 50.6215C181.603 50.694 181.494 50.787 181.425 50.9005C181.359 51.0139 181.326 51.1337 181.326 51.2598C181.326 51.3544 181.341 51.4395 181.373 51.5152C181.408 51.5877 181.467 51.6554 181.553 51.7185C181.638 51.7784 181.757 51.8351 181.912 51.8887C182.066 51.9423 182.263 51.9959 182.503 52.0495C182.922 52.144 183.267 52.2575 183.538 52.3899C183.81 52.5223 184.011 52.6847 184.144 52.8769C184.276 53.0692 184.342 53.3025 184.342 53.5767C184.342 53.8006 184.295 54.0055 184.2 54.1914C184.109 54.3774 183.975 54.5382 183.799 54.6737C183.625 54.8061 183.417 54.9102 183.174 54.9858C182.935 55.0583 182.665 55.0946 182.366 55.0946C181.915 55.0946 181.534 55.0142 181.222 54.8534C180.909 54.6927 180.673 54.4846 180.512 54.2293C180.351 53.9739 180.271 53.7044 180.271 53.4207H181.151C181.163 53.6603 181.233 53.851 181.359 53.9928C181.485 54.1315 181.639 54.2308 181.822 54.2907C182.005 54.3475 182.186 54.3758 182.366 54.3758C182.605 54.3758 182.806 54.3443 182.966 54.2813C183.13 54.2182 183.255 54.1315 183.34 54.0212C183.425 53.9109 183.468 53.7848 183.468 53.6429Z" fill="#6172F3"/>
</svg>
